<?xml version="1.0" encoding="utf-8"?>
<!-- Generator: Adobe Illustrator 23.0.0, SVG Export Plug-In . SVG Version: 6.00 Build 0)  -->
<svg version="1.1" id="图层_1" xmlns="http://www.w3.org/2000/svg" xmlns:xlink="http://www.w3.org/1999/xlink" x="0px" y="0px"
	 viewBox="0 0 16 16" style="enable-background:new 0 0 16 16;" xml:space="preserve">
<style type="text/css">
	.st0{fill-rule:evenodd;clip-rule:evenodd;fill:#00A1D6;}
</style>
<title>select control_special_Selected</title>
<desc>Created with Sketch.</desc>
<g id="Page-1">
	<g id="Artboard" transform="translate(-512.000000, -614.000000)">
		<g id="同时好评" transform="translate(512.000000, 613.000000)">
			<g id="select-control_special_default" transform="translate(0.000000, 1.000000)">
				<path id="select-control_special_Selected" class="st0" d="M6,9.5L4.8,8.3c-0.4-0.4-1.1-0.4-1.5,0c-0.4,0.4-0.4,1,0,1.5l1.9,1.9
					C5.4,11.9,5.7,12,6,12c0.3,0,0.6-0.1,0.8-0.3l5.9-5.9c0.4-0.4,0.4-1.1,0-1.5c-0.4-0.4-1.1-0.4-1.5,0L6,9.5z M2,0h12
					c1.1,0,2,0.9,2,2v12c0,1.1-0.9,2-2,2H2c-1.1,0-2-0.9-2-2V2C0,0.9,0.9,0,2,0z"/>
			</g>
		</g>
	</g>
</g>
</svg>
